<?xml version="1.0" encoding="utf-8"?>
<!-- Generator: Adobe Illustrator 19.2.0, SVG Export Plug-In . SVG Version: 6.00 Build 0)  -->
<svg version="1.1" id="icon-plant" xmlns="http://www.w3.org/2000/svg" xmlns:xlink="http://www.w3.org/1999/xlink" x="0px" y="0px"
	 viewBox="0 0 188.6 64" style="enable-background:new 0 0 188.6 64;" xml:space="preserve">
<style type="text/css">
	.st0{fill:none;stroke:#F91E62;stroke-width:2;stroke-linecap:round;stroke-linejoin:round;stroke-miterlimit:10;}
</style>
<g>
	<circle class="st0" cx="94.3" cy="32" r="29.8"/>
	<path class="st0" d="M93.5,34.4l0.4-1.5c-0.8-0.3-1.3-1.1-1.3-2.1c0-1.2,0.9-2.2,1.9-2.2c1,0,1.8,0.9,1.9,2
		c0.8-0.8,1.6-1.5,2.5-2.3c0.5-0.5,1.1-1,1.6-1.5c0.5-0.5,1-0.9,1.5-1.5c0.3-0.4,0.6-0.7,0.8-1.1c0,0,3.5,12.3,1,15.3
		c-1.5,1.8-4.9,0.2-7.5-1.4l3.4,13h-8.6l2.1-14.4L93.5,34.4"/>
	<path class="st0" d="M99.3,18.9c0.5-0.4,0.9-1,1.2-1.8c0.4-1.2,0.2-2.6-0.5-3.7c-0.2-0.3-1.9-2.5-0.7-2.3c2.9,0.6,4.8,3.3,5.5,6
		c0.3,1.3,0.5,2.9,0,4.1c-0.3,0.7-0.7,1.4-1.3,2c-0.2,0.3-0.6,0.5-0.7,0.8c-0.3,0.5-0.6,0.9-0.9,1.3c-0.4,0.6-0.9,1-1.5,1.5
		c-0.5,0.5-1.1,1-1.6,1.5c-0.8,0.8-1.6,1.5-2.5,2.3c-0.1-1.1-0.9-2-1.9-2c-1.1,0-1.9,1-1.9,2.2c0,1,0.5,1.8,1.3,2.1l-0.4,1.5
		l-0.3,2.2c-4.1-0.9-7.1-4.2-7.1-8.1c0-0.1,0-0.2,0-0.3c0.1-2.6,1.6-5,3.8-6.5c1.2-0.8,2.5-1.2,3.8-1.4C95.7,20,97.9,20,99.3,18.9z"
		/>
	<path class="st0" d="M99.7,51h-8.6c-4,2.4-7.4,4.7-10.5,7.5c4.1,2.1,8.7,3.3,13.7,3.3c5.5,0,10.6-1.5,15-4
		C106.4,55.4,103.3,53.2,99.7,51z"/>
</g>
</svg>
