<?xml version="1.0" encoding="utf-8"?>
<!-- Generator: Adobe Illustrator 19.2.0, SVG Export Plug-In . SVG Version: 6.00 Build 0)  -->
<svg version="1.1" id="icon-plant" xmlns="http://www.w3.org/2000/svg" xmlns:xlink="http://www.w3.org/1999/xlink" x="0px" y="0px"
	 viewBox="0 0 188.6 64" style="enable-background:new 0 0 188.6 64;" xml:space="preserve">
<style type="text/css">
	.st0{fill:none;stroke:#F91E62;stroke-width:2;stroke-linecap:round;stroke-linejoin:round;stroke-miterlimit:10;}
</style>
<path class="st0" d="M17.7,42c-0.4,0-0.8-0.4-0.8-0.8l0,0v-7.8c0-0.4,0.4-0.8,0.8-0.8l0,0h28.7c0.4,0,0.8,0.4,0.8,0.8l0,0v7.8
	c0,0.4-0.4,0.8-0.8,0.8l0,0H17.7z"/>
<path class="st0" d="M22.6,61c-0.4,0-0.8-0.3-0.8-0.7l-2.4-17.4c-0.1-0.5,0.3-0.9,0.7-0.9h0.1h23.6c0.5,0,0.8,0.4,0.8,0.8v0.1
	l-2.4,17.4c-0.1,0.4-0.4,0.7-0.8,0.7C41.5,61,22.6,61,22.6,61z"/>
<path class="st0" d="M31.7,18.9c0,0,5.2-3.9,5.1-7.9C36.7,6.8,31.7,3,31.7,3s-5.2,4.1-5.1,8.2C26.8,15.2,31.7,18.9,31.7,18.9z
	 M38,26.4c0,0,6.4,1.1,9.3-1.8c2.9-2.8,1.8-9.3,1.8-9.3s-6.1-0.8-8.9,2.1C37.2,20.3,38,26.4,38,26.4z M26.1,26.6
	c0,0,0.7-6.6-2.2-9.4c-2.9-2.8-8.8-2.1-8.8-2.1s-1.2,6.5,1.8,9.3C19.8,27.3,26.1,26.6,26.1,26.6z"/>
<path class="st0" d="M31.7,11.8v20.7 M43.6,20.9L31.7,32.5 M20.3,20.6l11.5,11.9"/>
<path class="st0" d="M158.6,52.7c0,0,14.8-8.2,14.8-21c0-12.7-14.8-28.7-14.8-28.7s-14.8,16-14.8,28.7
	C143.8,44.4,158.6,52.7,158.6,52.7z M158.5,60.9V20.4 M158.6,16.4v-3"/>
<path class="st0" d="M152.7,24.6l5.7,5.7h0.1l5.7-5.7 M152.7,35.7l5.7,5.7h0.1l5.7-5.7"/>
<path class="st0" d="M108.5,61H82.9l-4.1-47.8h33.7L108.5,61z"/>
<path class="st0" d="M109.6,46.9l1.8-22.3H79.7l1.8,22.3H109.6z"/>
<circle class="st0" cx="95.7" cy="35.7" r="6.8"/>
<path class="st0" d="M112.7,8.6H79L80.3,3h30.9L112.7,8.6z M77.9,8.6h35.5v4.7H77.9V8.6z"/>
</svg>
