<?xml version="1.0" encoding="utf-8"?>
<!-- Generator: Adobe Illustrator 19.2.0, SVG Export Plug-In . SVG Version: 6.00 Build 0)  -->
<svg version="1.1" id="Layer_1" xmlns="http://www.w3.org/2000/svg" xmlns:xlink="http://www.w3.org/1999/xlink" x="0px" y="0px"
	 viewBox="0 0 55 55" style="enable-background:new 0 0 55 55;" xml:space="preserve">
<style type="text/css">
	.st0{fill:#262266;}
</style>
<g>
	<g>
		<path class="st0" d="M49.2,55H5.8C2.6,55,0,52.4,0,49.2V5.8C0,2.6,2.6,0,5.8,0h43.3C52.4,0,55,2.6,55,5.8v43.3
			C55,52.4,52.4,55,49.2,55z M5.8,5C5.4,5,5,5.4,5,5.8v43.3C5,49.6,5.4,50,5.8,50h43.3c0.5,0,0.8-0.4,0.8-0.8V5.8
			C50,5.4,49.6,5,49.2,5H5.8z"/>
	</g>
	<g>
		<path class="st0" d="M49.2,55H5.8c-1.6,0-3-0.6-4.1-1.7c-1-1-1-2.6,0-3.5l48-48c0.9-0.9,2.6-0.9,3.5,0C54.4,2.8,55,4.3,55,5.8
			v43.3C55,52.4,52.4,55,49.2,55z M8.5,50h40.6c0.5,0,0.8-0.4,0.8-0.8V8.5L8.5,50z"/>
	</g>
</g>
</svg>
