<?xml version="1.0" encoding="utf-8"?>
<!-- Generator: Adobe Illustrator 19.2.0, SVG Export Plug-In . SVG Version: 6.00 Build 0)  -->
<svg version="1.1" id="Layer_1" xmlns="http://www.w3.org/2000/svg" xmlns:xlink="http://www.w3.org/1999/xlink" x="0px" y="0px"
	 viewBox="0 0 40 40" style="enable-background:new 0 0 40 40;" xml:space="preserve">
<style type="text/css">
	.st0{fill:none;}
	.st1{fill:none;stroke:#262266;stroke-width:1.5;stroke-linecap:round;stroke-linejoin:round;stroke-miterlimit:10;}
	.st2{fill:#262266;}
	.st3{fill:#EE2964;
		animation: scale 2s ease-in-out infinite;
		transform-origin: center;}

	@keyframes scale {
		0% {
		transform: scale(1);
		}
		10% {
		transform: scale(1.17);
		}
		15% {
		transform: scale(1.17);
		}
		25% {
		transform: scale(1);
		}
	}

</style>
<g>
	<path class="st0" d="M29.2,33.7c0,1.3-1,2.3-2.4,2.3H13.1c-1.3,0-2.3-1-2.3-2.3V6.3c0-1.3,1-2.3,2.3-2.3h13.9c1.3,0,2.4,1,2.4,2.3
		C29.3,6.3,29.3,33.7,29.2,33.7z"/>
	<path class="st1" d="M29.2,33.7c0,1.3-1,2.3-2.4,2.3H13.1c-1.3,0-2.3-1-2.3-2.3V6.3c0-1.3,1-2.3,2.3-2.3h13.9c1.3,0,2.4,1,2.4,2.3
		C29.3,6.3,29.3,33.7,29.2,33.7z"/>
	<path class="st1" d="M10.8,8.5h18.5v23.1H10.8V8.5z"/>
	<circle class="st2" cx="20" cy="33.8" r="1.2"/>
	<path class="st1" d="M16.6,6.3h6.6"/>
	<path class="st3" d="M20,17.6c0.3-1,1.2-1.6,2.2-1.6c1.3,0,2.3,1,2.3,2.3c0,0.4-0.1,0.8-0.3,1.2l0,0l0,0c-0.1,0.1-0.1,0.2-0.2,0.4
		L20,24l-3.9-4.1c-0.1-0.1-0.2-0.2-0.3-0.4l-0.1,0l0,0c-0.2-0.4-0.3-0.8-0.3-1.2c0-1.3,1.1-2.3,2.3-2.3C18.8,16,19.7,16.7,20,17.6"
		/>
</g>
</svg>
