<?xml version="1.0" encoding="utf-8"?>
<!-- Generator: Adobe Illustrator 19.2.0, SVG Export Plug-In . SVG Version: 6.00 Build 0)  -->
<svg version="1.1" id="Layer_1" xmlns="http://www.w3.org/2000/svg" xmlns:xlink="http://www.w3.org/1999/xlink" x="0px" y="0px"
	 viewBox="0 0 40 40" style="enable-background:new 0 0 40 40;" xml:space="preserve">
<style type="text/css">
	.st0{fill:none;stroke:#000000;stroke-width:1.51;stroke-miterlimit:10;}
	.st1{fill:#EE2964; 		
	animation: scale 3s ease-in-out infinite;}
	
	@keyframes scale {
		0% {
		fill:#EE2964;
		}
		40% {
		fill:#EE2964;
		}
		60% {
		fill:#000000;
		}
		70% {
		fill:#000000;
		}
		90% {
			fill:#EE2964;
		}
	}
</style>
<g>
	<path class="st0" d="M34.8,21.9c-0.9,8.7-9.4,14.6-17.8,14c-0.7,0-1.5-0.1-2-0.6c-0.6-0.5-0.7-1.3-0.7-2c0.2-2.8,2.5-6.7,1.1-9.5
		c-0.8-1.6-2.7-1.6-4.5-2c-1.7-0.4-3.5-0.5-5.1-1.3c-0.6-0.3-1.1-0.7-1.4-1.3c-0.3-0.7-0.3-1.5-0.2-2.2C5.7,9.3,12,3.3,20.2,4.1
		C29.2,5,35.7,13,34.8,21.9z"/>
	<ellipse transform="matrix(0.1 -0.995 0.995 0.1 -5.7355 25.4336)" class="st0" cx="11.2" cy="15.9" rx="2.5" ry="2.5"/>
	<ellipse transform="matrix(0.1 -0.995 0.995 0.1 4.3172 26.4113)" class="st0" cx="16.8" cy="10.8" rx="2.5" ry="2.5"/>
	<ellipse transform="matrix(0.1 -0.995 0.995 0.1 9.7997 33.8502)" class="st1" cx="23.6" cy="11.5" rx="2.5" ry="2.5"/>
	<ellipse transform="matrix(0.1 -0.995 0.995 0.1 8.7324 43.7813)" class="st0" cx="28.6" cy="17.1" rx="2.5" ry="2.5"/>
	<ellipse transform="matrix(0.1 -0.995 0.995 0.1 0.5727 49.795)" class="st0" cx="27.8" cy="24.6" rx="2.5" ry="2.5"/>
	<ellipse transform="matrix(0.1 -0.995 0.995 0.1 -9.485 48.2539)" class="st0" cx="21.9" cy="29.4" rx="2.5" ry="2.5"/>
</g>
</svg>
